<svg xmlns="http://www.w3.org/2000/svg" width="389" height="36.027" viewBox="0 0 389 36.027"><defs><style>.a{fill:#161615;}</style></defs><g transform="translate(-693.309 -14309.494)"><g transform="translate(693.309 14309.494)"><path class="a" d="M736.223,14327.167c0,10.466-8.631,18.354-20.076,18.354H693.883v-22.877h6.757v17.009h15.507c7.747,0,13.369-5.143,13.369-12.221,0-6.96-5.621-12.013-13.369-12.013H693.309l4.506-5.925h18.332C727.783,14309.494,736.223,14316.927,736.223,14327.167Z" transform="translate(-693.309 -14309.494)"/></g><g transform="translate(755.967 14309.494)"><path class="a" d="M818.243,14339.653l-4.58,5.868h-34.44v-36.027h38.75l-4.569,5.925H785.986v9.363h30.372l-4.1,5.3H785.986v9.571Z" transform="translate(-779.223 -14309.494)"/></g><g transform="translate(812.424 14309.494)"><path class="a" d="M893.095,14339.653l-4.586,5.868H856.635v-36.027h6.758v30.159Z" transform="translate(-856.635 -14309.494)"/></g><g transform="translate(866.372 14309.494)"><rect class="a" width="6.757" height="36.027" transform="translate(0)"/></g><g transform="translate(893.503 14309.494)"><path class="a" d="M1010.615,14335.31c0,4.658-2.3,10.211-13.24,10.211H967.807l4.8-5.868h24.819c5.807,0,6.431-3.291,6.431-4.709,0-3.134-1.93-4.861-5.441-4.861H967.807l4.333-5.3h26.175c3.111,0,5.12-1.768,5.12-4.5,0-4.236-3.635-4.867-5.8-4.867H967.976l4.765-5.925h24.684c7.95,0,12.508,3.646,12.508,10.01a8.286,8.286,0,0,1-4.4,7.483A8.774,8.774,0,0,1,1010.615,14335.31Z" transform="translate(-967.807 -14309.494)"/></g><g transform="translate(956.161 14309.494)"><rect class="a" width="6.757" height="36.027"/></g><g transform="translate(983.917 14309.494)"><path class="a" d="M1134.625,14345.521h-10.938l-.141-.09-25.01-16.183v16.272h-6.758v-36.027h6.758v14.838l23.8-14.838h10.809l-28.718,17.116Z" transform="translate(-1091.779 -14309.494)"/></g><g transform="translate(1043.289 14309.494)"><path class="a" d="M1212.208,14339.653l-4.58,5.868h-34.44v-36.027h38.75l-4.574,5.925H1179.95v9.363h30.372l-4.107,5.3H1179.95v9.571Z" transform="translate(-1173.187 -14309.494)"/></g></g></svg>